<mxfile host="app.diagrams.net" modified="2024-03-14T18:41:41.961Z" agent="Mozilla/5.0 (Windows NT 10.0; Win64; x64) AppleWebKit/537.36 (KHTML, like Gecko) Chrome/120.0.0.0 YaBrowser/24.1.0.0 Safari/537.36" etag="e4I9j1AAyU-UDCpSCu9U" version="24.0.5" type="device">
  <diagram name="Страница — 1" id="63Hvj9g00unoADVB2Ykm">
    <mxGraphModel dx="1134" dy="2208" grid="1" gridSize="10" guides="1" tooltips="1" connect="1" arrows="1" fold="1" page="1" pageScale="1" pageWidth="827" pageHeight="1169" math="0" shadow="0">
      <root>
        <mxCell id="0" />
        <mxCell id="1" parent="0" />
        <mxCell id="2apW-BuTAJdEhEXrDdgW-8" value="&lt;p style=&quot;margin:0px;margin-top:4px;text-align:center;&quot;&gt;&lt;i&gt;&amp;lt;&amp;lt;Interface&amp;gt;&amp;gt;&lt;/i&gt;&lt;br&gt;&lt;b&gt;IForm&lt;/b&gt;&lt;/p&gt;&lt;hr size=&quot;1&quot; style=&quot;border-style:solid;&quot;&gt;&lt;p style=&quot;margin:0px;margin-left:4px;&quot;&gt;+ payMethod?: String&lt;br&gt;&lt;span style=&quot;background-color: initial;&quot;&gt;+ address?: String&lt;/span&gt;&lt;br&gt;&lt;/p&gt;&lt;p style=&quot;margin:0px;margin-left:4px;&quot;&gt;&lt;span style=&quot;background-color: initial;&quot;&gt;+ email?: String&lt;/span&gt;&lt;/p&gt;&lt;p style=&quot;margin:0px;margin-left:4px;&quot;&gt;+ phone?: String&lt;br&gt;&lt;/p&gt;&lt;p style=&quot;margin: 0px 0px 0px 4px;&quot;&gt;+ image?: String&lt;br&gt;+ title?: String&lt;/p&gt;&lt;p style=&quot;margin: 0px 0px 0px 4px;&quot;&gt;+ description?: String&lt;/p&gt;&lt;p style=&quot;margin:0px;margin-left:4px;&quot;&gt;&lt;br&gt;&lt;/p&gt;" style="verticalAlign=top;align=left;overflow=fill;html=1;whiteSpace=wrap;" parent="1" vertex="1">
          <mxGeometry x="70" y="376" width="155" height="160" as="geometry" />
        </mxCell>
        <mxCell id="kR6O2xnwiLPBDadl995g-18" style="edgeStyle=orthogonalEdgeStyle;rounded=0;orthogonalLoop=1;jettySize=auto;html=1;exitX=1;exitY=1;exitDx=0;exitDy=0;entryX=1;entryY=0;entryDx=0;entryDy=0;" parent="1" source="2apW-BuTAJdEhEXrDdgW-10" target="2apW-BuTAJdEhEXrDdgW-16" edge="1">
          <mxGeometry relative="1" as="geometry" />
        </mxCell>
        <mxCell id="2apW-BuTAJdEhEXrDdgW-10" value="&lt;p style=&quot;margin:0px;margin-top:4px;text-align:center;&quot;&gt;&lt;i&gt;&amp;lt;&amp;lt;Interface&amp;gt;&amp;gt;&lt;/i&gt;&lt;br&gt;&lt;b&gt;ICard&lt;/b&gt;&lt;/p&gt;&lt;hr size=&quot;1&quot; style=&quot;border-style:solid;&quot;&gt;&lt;p style=&quot;margin:0px;margin-left:4px;&quot;&gt;+ id: String&lt;br&gt;+ description?: String&lt;/p&gt;&lt;p style=&quot;margin:0px;margin-left:4px;&quot;&gt;+ image?: String&lt;/p&gt;&lt;p style=&quot;margin:0px;margin-left:4px;&quot;&gt;+ title: String&lt;/p&gt;&lt;p style=&quot;margin:0px;margin-left:4px;&quot;&gt;+ category?: String&lt;/p&gt;&lt;p style=&quot;margin:0px;margin-left:4px;&quot;&gt;+ price: Number&lt;/p&gt;&lt;p style=&quot;margin:0px;margin-left:4px;&quot;&gt;&lt;br&gt;&lt;/p&gt;" style="verticalAlign=top;align=left;overflow=fill;html=1;whiteSpace=wrap;" parent="1" vertex="1">
          <mxGeometry x="1200" y="-100" width="190" height="140" as="geometry" />
        </mxCell>
        <mxCell id="kR6O2xnwiLPBDadl995g-16" style="edgeStyle=orthogonalEdgeStyle;rounded=0;orthogonalLoop=1;jettySize=auto;html=1;exitX=1;exitY=1;exitDx=0;exitDy=0;entryX=1;entryY=0;entryDx=0;entryDy=0;" parent="1" source="2apW-BuTAJdEhEXrDdgW-11" target="2apW-BuTAJdEhEXrDdgW-48" edge="1">
          <mxGeometry relative="1" as="geometry" />
        </mxCell>
        <mxCell id="2apW-BuTAJdEhEXrDdgW-11" value="&lt;p style=&quot;margin:0px;margin-top:4px;text-align:center;&quot;&gt;&lt;i&gt;&amp;lt;&amp;lt;Interface&amp;gt;&amp;gt;&lt;/i&gt;&lt;br&gt;&lt;b&gt;IBasket&lt;/b&gt;&lt;/p&gt;&lt;hr size=&quot;1&quot; style=&quot;border-style:solid;&quot;&gt;&lt;p style=&quot;margin:0px;margin-left:4px;&quot;&gt;+ items: HTMLElement[]&lt;br&gt;&lt;/p&gt;&lt;p style=&quot;margin:0px;margin-left:4px;&quot;&gt;+ totalPrice: String&lt;/p&gt;&lt;p style=&quot;margin:0px;margin-left:4px;&quot;&gt;+ button: HTMLButtonElement&lt;/p&gt;&lt;p style=&quot;margin:0px;margin-left:4px;&quot;&gt;&lt;br&gt;&lt;/p&gt;" style="verticalAlign=top;align=left;overflow=fill;html=1;whiteSpace=wrap;" parent="1" vertex="1">
          <mxGeometry x="760" y="-70" width="180" height="110" as="geometry" />
        </mxCell>
        <mxCell id="2apW-BuTAJdEhEXrDdgW-14" value="&lt;p style=&quot;margin:0px;margin-top:4px;text-align:center;&quot;&gt;&lt;i&gt;&amp;lt;&amp;lt;Type&amp;gt;&amp;gt;&lt;/i&gt;&lt;br&gt;&lt;b&gt;Category&lt;/b&gt;&lt;/p&gt;&lt;hr size=&quot;1&quot; style=&quot;border-style:solid;&quot;&gt;&lt;p style=&quot;margin:0px;margin-left:4px;&quot;&gt;+ category: String[]&lt;/p&gt;" style="verticalAlign=top;align=left;overflow=fill;html=1;whiteSpace=wrap;" parent="1" vertex="1">
          <mxGeometry x="1430" y="193" width="190" height="75" as="geometry" />
        </mxCell>
        <mxCell id="2apW-BuTAJdEhEXrDdgW-16" value="Card" style="swimlane;fontStyle=1;align=center;verticalAlign=top;childLayout=stackLayout;horizontal=1;startSize=26;horizontalStack=0;resizeParent=1;resizeParentMax=0;resizeLast=0;collapsible=1;marginBottom=0;whiteSpace=wrap;html=1;" parent="1" vertex="1">
          <mxGeometry x="1190" y="130" width="200" height="138" as="geometry" />
        </mxCell>
        <mxCell id="2apW-BuTAJdEhEXrDdgW-17" value="# _title: HTMLElement&lt;div&gt;# _image: HTMLImageElement&lt;/div&gt;&lt;div&gt;# _description: HTMLElement&lt;/div&gt;&lt;div&gt;# _button: HTMLButtonElement&lt;/div&gt;&lt;div&gt;# _price: HTMLElement&lt;/div&gt;&lt;div&gt;# _category: Category&lt;/div&gt;" style="text;strokeColor=none;fillColor=none;align=left;verticalAlign=top;spacingLeft=4;spacingRight=4;overflow=hidden;rotatable=0;points=[[0,0.5],[1,0.5]];portConstraint=eastwest;whiteSpace=wrap;html=1;" parent="2apW-BuTAJdEhEXrDdgW-16" vertex="1">
          <mxGeometry y="26" width="200" height="104" as="geometry" />
        </mxCell>
        <mxCell id="2apW-BuTAJdEhEXrDdgW-18" value="" style="line;strokeWidth=1;fillColor=none;align=left;verticalAlign=middle;spacingTop=-1;spacingLeft=3;spacingRight=3;rotatable=0;labelPosition=right;points=[];portConstraint=eastwest;strokeColor=inherit;" parent="2apW-BuTAJdEhEXrDdgW-16" vertex="1">
          <mxGeometry y="130" width="200" height="8" as="geometry" />
        </mxCell>
        <mxCell id="2apW-BuTAJdEhEXrDdgW-20" value="Modal" style="swimlane;fontStyle=1;align=center;verticalAlign=top;childLayout=stackLayout;horizontal=1;startSize=26;horizontalStack=0;resizeParent=1;resizeParentMax=0;resizeLast=0;collapsible=1;marginBottom=0;whiteSpace=wrap;html=1;" parent="1" vertex="1">
          <mxGeometry x="500" y="130" width="210" height="150" as="geometry" />
        </mxCell>
        <mxCell id="2apW-BuTAJdEhEXrDdgW-21" value="# _closeButton: HTMLButtonElement&lt;div&gt;# _content: HTMLElement&lt;/div&gt;" style="text;strokeColor=none;fillColor=none;align=left;verticalAlign=top;spacingLeft=4;spacingRight=4;overflow=hidden;rotatable=0;points=[[0,0.5],[1,0.5]];portConstraint=eastwest;whiteSpace=wrap;html=1;" parent="2apW-BuTAJdEhEXrDdgW-20" vertex="1">
          <mxGeometry y="26" width="210" height="44" as="geometry" />
        </mxCell>
        <mxCell id="2apW-BuTAJdEhEXrDdgW-22" value="" style="line;strokeWidth=1;fillColor=none;align=left;verticalAlign=middle;spacingTop=-1;spacingLeft=3;spacingRight=3;rotatable=0;labelPosition=right;points=[];portConstraint=eastwest;strokeColor=inherit;" parent="2apW-BuTAJdEhEXrDdgW-20" vertex="1">
          <mxGeometry y="70" width="210" height="8" as="geometry" />
        </mxCell>
        <mxCell id="2apW-BuTAJdEhEXrDdgW-93" value="open()&lt;br style=&quot;padding: 0px; margin: 0px;&quot;&gt;close()&lt;br style=&quot;padding: 0px; margin: 0px;&quot;&gt;render(data: IModalData): HTMLElement" style="text;strokeColor=none;fillColor=none;align=left;verticalAlign=top;spacingLeft=4;spacingRight=4;overflow=hidden;rotatable=0;points=[[0,0.5],[1,0.5]];portConstraint=eastwest;whiteSpace=wrap;html=1;" parent="2apW-BuTAJdEhEXrDdgW-20" vertex="1">
          <mxGeometry y="78" width="210" height="72" as="geometry" />
        </mxCell>
        <mxCell id="2apW-BuTAJdEhEXrDdgW-68" style="edgeStyle=orthogonalEdgeStyle;rounded=0;orthogonalLoop=1;jettySize=auto;html=1;exitX=0.5;exitY=0;exitDx=0;exitDy=0;entryX=0.5;entryY=0;entryDx=0;entryDy=0;" parent="1" source="2apW-BuTAJdEhEXrDdgW-29" target="2apW-BuTAJdEhEXrDdgW-64" edge="1">
          <mxGeometry relative="1" as="geometry" />
        </mxCell>
        <mxCell id="2apW-BuTAJdEhEXrDdgW-71" style="edgeStyle=orthogonalEdgeStyle;rounded=0;orthogonalLoop=1;jettySize=auto;html=1;exitX=0.5;exitY=0;exitDx=0;exitDy=0;entryX=0.5;entryY=0;entryDx=0;entryDy=0;" parent="1" source="2apW-BuTAJdEhEXrDdgW-29" target="2apW-BuTAJdEhEXrDdgW-48" edge="1">
          <mxGeometry relative="1" as="geometry" />
        </mxCell>
        <mxCell id="2apW-BuTAJdEhEXrDdgW-73" style="edgeStyle=orthogonalEdgeStyle;rounded=0;orthogonalLoop=1;jettySize=auto;html=1;exitX=0.5;exitY=0;exitDx=0;exitDy=0;entryX=0.5;entryY=0;entryDx=0;entryDy=0;" parent="1" source="2apW-BuTAJdEhEXrDdgW-29" target="2apW-BuTAJdEhEXrDdgW-53" edge="1">
          <mxGeometry relative="1" as="geometry" />
        </mxCell>
        <mxCell id="2apW-BuTAJdEhEXrDdgW-111" style="edgeStyle=orthogonalEdgeStyle;rounded=0;orthogonalLoop=1;jettySize=auto;html=1;exitX=0.5;exitY=0;exitDx=0;exitDy=0;entryX=0.5;entryY=0;entryDx=0;entryDy=0;" parent="1" source="2apW-BuTAJdEhEXrDdgW-29" target="2apW-BuTAJdEhEXrDdgW-20" edge="1">
          <mxGeometry relative="1" as="geometry" />
        </mxCell>
        <mxCell id="ZJhNXfSze4hVI7veaMcX-10" style="edgeStyle=orthogonalEdgeStyle;rounded=0;orthogonalLoop=1;jettySize=auto;html=1;exitX=0.5;exitY=0;exitDx=0;exitDy=0;entryX=0.5;entryY=0;entryDx=0;entryDy=0;" parent="1" source="2apW-BuTAJdEhEXrDdgW-29" target="2apW-BuTAJdEhEXrDdgW-16" edge="1">
          <mxGeometry relative="1" as="geometry" />
        </mxCell>
        <mxCell id="2apW-BuTAJdEhEXrDdgW-29" value="&lt;div&gt;&lt;i style=&quot;font-weight: 400;&quot;&gt;&amp;lt;&amp;lt;abstract Class&amp;gt;&amp;gt;&lt;/i&gt;&lt;br&gt;&lt;/div&gt;Component" style="swimlane;fontStyle=1;align=center;verticalAlign=top;childLayout=stackLayout;horizontal=1;startSize=40;horizontalStack=0;resizeParent=1;resizeParentMax=0;resizeLast=0;collapsible=1;marginBottom=0;whiteSpace=wrap;html=1;" parent="1" vertex="1">
          <mxGeometry x="20" y="94" width="160" height="174" as="geometry" />
        </mxCell>
        <mxCell id="2apW-BuTAJdEhEXrDdgW-31" value="" style="line;strokeWidth=1;fillColor=none;align=left;verticalAlign=middle;spacingTop=-1;spacingLeft=3;spacingRight=3;rotatable=0;labelPosition=right;points=[];portConstraint=eastwest;strokeColor=inherit;" parent="2apW-BuTAJdEhEXrDdgW-29" vertex="1">
          <mxGeometry y="40" width="160" height="8" as="geometry" />
        </mxCell>
        <mxCell id="2apW-BuTAJdEhEXrDdgW-32" value="&lt;div&gt;toggleClass()&lt;/div&gt;&lt;div&gt;setDisabled()&lt;/div&gt;&lt;div&gt;setHidden()&lt;/div&gt;&lt;div&gt;setVisible()&lt;/div&gt;&lt;div&gt;setImage()&lt;/div&gt;&lt;div&gt;render()&lt;/div&gt;" style="text;strokeColor=none;fillColor=none;align=left;verticalAlign=top;spacingLeft=4;spacingRight=4;overflow=hidden;rotatable=0;points=[[0,0.5],[1,0.5]];portConstraint=eastwest;whiteSpace=wrap;html=1;" parent="2apW-BuTAJdEhEXrDdgW-29" vertex="1">
          <mxGeometry y="48" width="160" height="126" as="geometry" />
        </mxCell>
        <mxCell id="Tr2P6wa3FgDkXpOaraDb-5" style="edgeStyle=orthogonalEdgeStyle;rounded=0;orthogonalLoop=1;jettySize=auto;html=1;exitX=0.5;exitY=0;exitDx=0;exitDy=0;entryX=0.5;entryY=0;entryDx=0;entryDy=0;" parent="1" source="2apW-BuTAJdEhEXrDdgW-35" target="2apW-BuTAJdEhEXrDdgW-39" edge="1">
          <mxGeometry relative="1" as="geometry" />
        </mxCell>
        <mxCell id="2apW-BuTAJdEhEXrDdgW-35" value="&lt;div&gt;&lt;i style=&quot;font-weight: 400;&quot;&gt;&amp;lt;&amp;lt;abstract Class&amp;gt;&amp;gt;&lt;/i&gt;&lt;br&gt;&lt;/div&gt;Model" style="swimlane;fontStyle=1;align=center;verticalAlign=top;childLayout=stackLayout;horizontal=1;startSize=40;horizontalStack=0;resizeParent=1;resizeParentMax=0;resizeLast=0;collapsible=1;marginBottom=0;whiteSpace=wrap;html=1;" parent="1" vertex="1">
          <mxGeometry x="630" y="490.06999999999994" width="160" height="74" as="geometry" />
        </mxCell>
        <mxCell id="2apW-BuTAJdEhEXrDdgW-36" value="" style="line;strokeWidth=1;fillColor=none;align=left;verticalAlign=middle;spacingTop=-1;spacingLeft=3;spacingRight=3;rotatable=0;labelPosition=right;points=[];portConstraint=eastwest;strokeColor=inherit;" parent="2apW-BuTAJdEhEXrDdgW-35" vertex="1">
          <mxGeometry y="40" width="160" height="8" as="geometry" />
        </mxCell>
        <mxCell id="2apW-BuTAJdEhEXrDdgW-38" value="+ emitChanges()" style="text;strokeColor=none;fillColor=none;align=left;verticalAlign=top;spacingLeft=4;spacingRight=4;overflow=hidden;rotatable=0;points=[[0,0.5],[1,0.5]];portConstraint=eastwest;whiteSpace=wrap;html=1;" parent="2apW-BuTAJdEhEXrDdgW-35" vertex="1">
          <mxGeometry y="48" width="160" height="26" as="geometry" />
        </mxCell>
        <mxCell id="2apW-BuTAJdEhEXrDdgW-39" value="AppState" style="swimlane;fontStyle=1;align=center;verticalAlign=top;childLayout=stackLayout;horizontal=1;startSize=26;horizontalStack=0;resizeParent=1;resizeParentMax=0;resizeLast=0;collapsible=1;marginBottom=0;whiteSpace=wrap;html=1;" parent="1" vertex="1">
          <mxGeometry x="840" y="519.9999999999999" width="160" height="190" as="geometry" />
        </mxCell>
        <mxCell id="2apW-BuTAJdEhEXrDdgW-40" value="&lt;p style=&quot;margin: 0px 0px 0px 4px;&quot;&gt;+ catalog: CardItem[]&lt;/p&gt;&lt;p style=&quot;margin: 0px 0px 0px 4px;&quot;&gt;+ basket: string[]&lt;/p&gt;&lt;p style=&quot;margin: 0px 0px 0px 4px;&quot;&gt;+ order: IForm&lt;/p&gt;" style="text;strokeColor=none;fillColor=none;align=left;verticalAlign=top;spacingLeft=4;spacingRight=4;overflow=hidden;rotatable=0;points=[[0,0.5],[1,0.5]];portConstraint=eastwest;whiteSpace=wrap;html=1;" parent="2apW-BuTAJdEhEXrDdgW-39" vertex="1">
          <mxGeometry y="26" width="160" height="54" as="geometry" />
        </mxCell>
        <mxCell id="2apW-BuTAJdEhEXrDdgW-41" value="" style="line;strokeWidth=1;fillColor=none;align=left;verticalAlign=middle;spacingTop=-1;spacingLeft=3;spacingRight=3;rotatable=0;labelPosition=right;points=[];portConstraint=eastwest;strokeColor=inherit;" parent="2apW-BuTAJdEhEXrDdgW-39" vertex="1">
          <mxGeometry y="80" width="160" height="8" as="geometry" />
        </mxCell>
        <mxCell id="2apW-BuTAJdEhEXrDdgW-42" value="&lt;div&gt;toggleOrderedCard()&lt;/div&gt;&lt;div&gt;clearBasket()&lt;/div&gt;&lt;div&gt;getTotal()&lt;/div&gt;&lt;div&gt;setCatalog()&lt;/div&gt;&lt;div&gt;setOrderField(&lt;/div&gt;&lt;div&gt;validateOrder()&lt;/div&gt;" style="text;strokeColor=none;fillColor=none;align=left;verticalAlign=top;spacingLeft=4;spacingRight=4;overflow=hidden;rotatable=0;points=[[0,0.5],[1,0.5]];portConstraint=eastwest;whiteSpace=wrap;html=1;" parent="2apW-BuTAJdEhEXrDdgW-39" vertex="1">
          <mxGeometry y="88" width="160" height="102" as="geometry" />
        </mxCell>
        <mxCell id="2apW-BuTAJdEhEXrDdgW-48" value="Basket" style="swimlane;fontStyle=1;align=center;verticalAlign=top;childLayout=stackLayout;horizontal=1;startSize=26;horizontalStack=0;resizeParent=1;resizeParentMax=0;resizeLast=0;collapsible=1;marginBottom=0;whiteSpace=wrap;html=1;" parent="1" vertex="1">
          <mxGeometry x="750" y="130" width="190" height="88" as="geometry" />
        </mxCell>
        <mxCell id="2apW-BuTAJdEhEXrDdgW-49" value="# _list: HTMLElement&lt;div&gt;# _totalPrice: HTMLElement&lt;/div&gt;&lt;div&gt;# _button:&amp;nbsp;&lt;span style=&quot;background-color: initial;&quot;&gt;HTMLButtonElement&lt;/span&gt;&lt;/div&gt;" style="text;strokeColor=none;fillColor=none;align=left;verticalAlign=top;spacingLeft=4;spacingRight=4;overflow=hidden;rotatable=0;points=[[0,0.5],[1,0.5]];portConstraint=eastwest;whiteSpace=wrap;html=1;" parent="2apW-BuTAJdEhEXrDdgW-48" vertex="1">
          <mxGeometry y="26" width="190" height="54" as="geometry" />
        </mxCell>
        <mxCell id="2apW-BuTAJdEhEXrDdgW-50" value="" style="line;strokeWidth=1;fillColor=none;align=left;verticalAlign=middle;spacingTop=-1;spacingLeft=3;spacingRight=3;rotatable=0;labelPosition=right;points=[];portConstraint=eastwest;strokeColor=inherit;" parent="2apW-BuTAJdEhEXrDdgW-48" vertex="1">
          <mxGeometry y="80" width="190" height="8" as="geometry" />
        </mxCell>
        <mxCell id="2apW-BuTAJdEhEXrDdgW-53" value="Page" style="swimlane;fontStyle=1;align=center;verticalAlign=top;childLayout=stackLayout;horizontal=1;startSize=26;horizontalStack=0;resizeParent=1;resizeParentMax=0;resizeLast=0;collapsible=1;marginBottom=0;whiteSpace=wrap;html=1;" parent="1" vertex="1">
          <mxGeometry x="980" y="130" width="160" height="88" as="geometry" />
        </mxCell>
        <mxCell id="2apW-BuTAJdEhEXrDdgW-54" value="# _counter: HTMLElement&lt;div&gt;# _catalog: HTMLElement&lt;br&gt;&lt;/div&gt;&lt;div&gt;# _basket: HTMLElement&lt;br&gt;&lt;/div&gt;" style="text;strokeColor=none;fillColor=none;align=left;verticalAlign=top;spacingLeft=4;spacingRight=4;overflow=hidden;rotatable=0;points=[[0,0.5],[1,0.5]];portConstraint=eastwest;whiteSpace=wrap;html=1;" parent="2apW-BuTAJdEhEXrDdgW-53" vertex="1">
          <mxGeometry y="26" width="160" height="54" as="geometry" />
        </mxCell>
        <mxCell id="2apW-BuTAJdEhEXrDdgW-55" value="" style="line;strokeWidth=1;fillColor=none;align=left;verticalAlign=middle;spacingTop=-1;spacingLeft=3;spacingRight=3;rotatable=0;labelPosition=right;points=[];portConstraint=eastwest;strokeColor=inherit;" parent="2apW-BuTAJdEhEXrDdgW-53" vertex="1">
          <mxGeometry y="80" width="160" height="8" as="geometry" />
        </mxCell>
        <mxCell id="2apW-BuTAJdEhEXrDdgW-64" value="Form" style="swimlane;fontStyle=1;align=center;verticalAlign=top;childLayout=stackLayout;horizontal=1;startSize=26;horizontalStack=0;resizeParent=1;resizeParentMax=0;resizeLast=0;collapsible=1;marginBottom=0;whiteSpace=wrap;html=1;" parent="1" vertex="1">
          <mxGeometry x="254" y="130" width="200" height="118" as="geometry" />
        </mxCell>
        <mxCell id="kR6O2xnwiLPBDadl995g-10" value="# _submit: HTMLButtonElement&lt;div&gt;# _errors: HTMLElement&lt;/div&gt;" style="text;strokeColor=none;fillColor=none;align=left;verticalAlign=top;spacingLeft=4;spacingRight=4;overflow=hidden;rotatable=0;points=[[0,0.5],[1,0.5]];portConstraint=eastwest;whiteSpace=wrap;html=1;" parent="2apW-BuTAJdEhEXrDdgW-64" vertex="1">
          <mxGeometry y="26" width="200" height="44" as="geometry" />
        </mxCell>
        <mxCell id="2apW-BuTAJdEhEXrDdgW-66" value="" style="line;strokeWidth=1;fillColor=none;align=left;verticalAlign=middle;spacingTop=-1;spacingLeft=3;spacingRight=3;rotatable=0;labelPosition=right;points=[];portConstraint=eastwest;strokeColor=inherit;" parent="2apW-BuTAJdEhEXrDdgW-64" vertex="1">
          <mxGeometry y="70" width="200" height="8" as="geometry" />
        </mxCell>
        <mxCell id="2apW-BuTAJdEhEXrDdgW-67" value="# onInputChange()&amp;nbsp;&lt;br style=&quot;padding: 0px; margin: 0px;&quot;&gt;render()&amp;nbsp;" style="text;strokeColor=none;fillColor=none;align=left;verticalAlign=top;spacingLeft=4;spacingRight=4;overflow=hidden;rotatable=0;points=[[0,0.5],[1,0.5]];portConstraint=eastwest;whiteSpace=wrap;html=1;" parent="2apW-BuTAJdEhEXrDdgW-64" vertex="1">
          <mxGeometry y="78" width="200" height="40" as="geometry" />
        </mxCell>
        <mxCell id="kR6O2xnwiLPBDadl995g-17" style="edgeStyle=orthogonalEdgeStyle;rounded=0;orthogonalLoop=1;jettySize=auto;html=1;exitX=1;exitY=1;exitDx=0;exitDy=0;entryX=1;entryY=0;entryDx=0;entryDy=0;" parent="1" source="2apW-BuTAJdEhEXrDdgW-85" target="2apW-BuTAJdEhEXrDdgW-20" edge="1">
          <mxGeometry relative="1" as="geometry" />
        </mxCell>
        <mxCell id="2apW-BuTAJdEhEXrDdgW-85" value="&lt;p style=&quot;margin:0px;margin-top:4px;text-align:center;&quot;&gt;&lt;i&gt;&amp;lt;&amp;lt;Interface&amp;gt;&amp;gt;&lt;/i&gt;&lt;br&gt;&lt;b&gt;IModalData&lt;/b&gt;&lt;/p&gt;&lt;hr size=&quot;1&quot; style=&quot;border-style:solid;&quot;&gt;&lt;p style=&quot;margin:0px;margin-left:4px;&quot;&gt;+ content: HTMLElement&lt;br&gt;&lt;/p&gt;&lt;p style=&quot;margin:0px;margin-left:4px;&quot;&gt;&lt;br&gt;&lt;/p&gt;" style="verticalAlign=top;align=left;overflow=fill;html=1;whiteSpace=wrap;" parent="1" vertex="1">
          <mxGeometry x="550" y="-30" width="160" height="70" as="geometry" />
        </mxCell>
        <mxCell id="2apW-BuTAJdEhEXrDdgW-96" value="PaymentForm" style="swimlane;fontStyle=1;align=center;verticalAlign=top;childLayout=stackLayout;horizontal=1;startSize=26;horizontalStack=0;resizeParent=1;resizeParentMax=0;resizeLast=0;collapsible=1;marginBottom=0;whiteSpace=wrap;html=1;" parent="1" vertex="1">
          <mxGeometry x="270" y="300" width="160" height="110" as="geometry" />
        </mxCell>
        <mxCell id="kR6O2xnwiLPBDadl995g-3" value="+ payMethod?: String&lt;br&gt;&lt;span style=&quot;background-color: initial;&quot;&gt;+ address?: String&lt;/span&gt;" style="text;strokeColor=none;fillColor=none;align=left;verticalAlign=top;spacingLeft=4;spacingRight=4;overflow=hidden;rotatable=0;points=[[0,0.5],[1,0.5]];portConstraint=eastwest;whiteSpace=wrap;html=1;" parent="2apW-BuTAJdEhEXrDdgW-96" vertex="1">
          <mxGeometry y="26" width="160" height="34" as="geometry" />
        </mxCell>
        <mxCell id="2apW-BuTAJdEhEXrDdgW-98" value="" style="line;strokeWidth=1;fillColor=none;align=left;verticalAlign=middle;spacingTop=-1;spacingLeft=3;spacingRight=3;rotatable=0;labelPosition=right;points=[];portConstraint=eastwest;strokeColor=inherit;" parent="2apW-BuTAJdEhEXrDdgW-96" vertex="1">
          <mxGeometry y="60" width="160" height="8" as="geometry" />
        </mxCell>
        <mxCell id="2apW-BuTAJdEhEXrDdgW-97" value="# onInputChange()&amp;nbsp;&lt;br style=&quot;padding: 0px; margin: 0px;&quot;&gt;render()&amp;nbsp;" style="text;strokeColor=none;fillColor=none;align=left;verticalAlign=top;spacingLeft=4;spacingRight=4;overflow=hidden;rotatable=0;points=[[0,0.5],[1,0.5]];portConstraint=eastwest;whiteSpace=wrap;html=1;" parent="2apW-BuTAJdEhEXrDdgW-96" vertex="1">
          <mxGeometry y="68" width="160" height="42" as="geometry" />
        </mxCell>
        <mxCell id="2apW-BuTAJdEhEXrDdgW-100" value="OrderForm" style="swimlane;fontStyle=1;align=center;verticalAlign=top;childLayout=stackLayout;horizontal=1;startSize=26;horizontalStack=0;resizeParent=1;resizeParentMax=0;resizeLast=0;collapsible=1;marginBottom=0;whiteSpace=wrap;html=1;" parent="1" vertex="1">
          <mxGeometry x="270" y="437" width="160" height="108" as="geometry" />
        </mxCell>
        <mxCell id="kR6O2xnwiLPBDadl995g-4" value="&lt;p style=&quot;margin: 0px 0px 0px 4px;&quot;&gt;&lt;span style=&quot;background-color: initial;&quot;&gt;+ email?: String&lt;/span&gt;&lt;/p&gt;&lt;p style=&quot;margin: 0px 0px 0px 4px;&quot;&gt;+ phone?: String&lt;/p&gt;" style="text;strokeColor=none;fillColor=none;align=left;verticalAlign=top;spacingLeft=4;spacingRight=4;overflow=hidden;rotatable=0;points=[[0,0.5],[1,0.5]];portConstraint=eastwest;whiteSpace=wrap;html=1;" parent="2apW-BuTAJdEhEXrDdgW-100" vertex="1">
          <mxGeometry y="26" width="160" height="34" as="geometry" />
        </mxCell>
        <mxCell id="2apW-BuTAJdEhEXrDdgW-102" value="" style="line;strokeWidth=1;fillColor=none;align=left;verticalAlign=middle;spacingTop=-1;spacingLeft=3;spacingRight=3;rotatable=0;labelPosition=right;points=[];portConstraint=eastwest;strokeColor=inherit;" parent="2apW-BuTAJdEhEXrDdgW-100" vertex="1">
          <mxGeometry y="60" width="160" height="8" as="geometry" />
        </mxCell>
        <mxCell id="2apW-BuTAJdEhEXrDdgW-103" value="# onInputChange()&amp;nbsp;&lt;br style=&quot;padding: 0px; margin: 0px;&quot;&gt;render()&amp;nbsp;" style="text;strokeColor=none;fillColor=none;align=left;verticalAlign=top;spacingLeft=4;spacingRight=4;overflow=hidden;rotatable=0;points=[[0,0.5],[1,0.5]];portConstraint=eastwest;whiteSpace=wrap;html=1;" parent="2apW-BuTAJdEhEXrDdgW-100" vertex="1">
          <mxGeometry y="68" width="160" height="40" as="geometry" />
        </mxCell>
        <mxCell id="2apW-BuTAJdEhEXrDdgW-104" value="SuccessForm" style="swimlane;fontStyle=1;align=center;verticalAlign=top;childLayout=stackLayout;horizontal=1;startSize=26;horizontalStack=0;resizeParent=1;resizeParentMax=0;resizeLast=0;collapsible=1;marginBottom=0;whiteSpace=wrap;html=1;" parent="1" vertex="1">
          <mxGeometry x="270" y="566" width="160" height="128" as="geometry" />
        </mxCell>
        <mxCell id="kR6O2xnwiLPBDadl995g-5" value="&lt;p style=&quot;margin: 0px 0px 0px 4px;&quot;&gt;+ image?: String&lt;br&gt;+ title?: String&lt;/p&gt;&lt;p style=&quot;margin: 0px 0px 0px 4px;&quot;&gt;+ description?: String&lt;/p&gt;" style="text;strokeColor=none;fillColor=none;align=left;verticalAlign=top;spacingLeft=4;spacingRight=4;overflow=hidden;rotatable=0;points=[[0,0.5],[1,0.5]];portConstraint=eastwest;whiteSpace=wrap;html=1;" parent="2apW-BuTAJdEhEXrDdgW-104" vertex="1">
          <mxGeometry y="26" width="160" height="54" as="geometry" />
        </mxCell>
        <mxCell id="2apW-BuTAJdEhEXrDdgW-106" value="" style="line;strokeWidth=1;fillColor=none;align=left;verticalAlign=middle;spacingTop=-1;spacingLeft=3;spacingRight=3;rotatable=0;labelPosition=right;points=[];portConstraint=eastwest;strokeColor=inherit;" parent="2apW-BuTAJdEhEXrDdgW-104" vertex="1">
          <mxGeometry y="80" width="160" height="8" as="geometry" />
        </mxCell>
        <mxCell id="2apW-BuTAJdEhEXrDdgW-107" value="# onInputChange()&amp;nbsp;&lt;br style=&quot;padding: 0px; margin: 0px;&quot;&gt;render()&amp;nbsp;" style="text;strokeColor=none;fillColor=none;align=left;verticalAlign=top;spacingLeft=4;spacingRight=4;overflow=hidden;rotatable=0;points=[[0,0.5],[1,0.5]];portConstraint=eastwest;whiteSpace=wrap;html=1;" parent="2apW-BuTAJdEhEXrDdgW-104" vertex="1">
          <mxGeometry y="88" width="160" height="40" as="geometry" />
        </mxCell>
        <mxCell id="kR6O2xnwiLPBDadl995g-26" style="edgeStyle=orthogonalEdgeStyle;rounded=0;orthogonalLoop=1;jettySize=auto;html=1;exitX=1;exitY=0;exitDx=0;exitDy=0;entryX=1.009;entryY=0.081;entryDx=0;entryDy=0;entryPerimeter=0;" parent="1" source="Tr2P6wa3FgDkXpOaraDb-6" target="Tr2P6wa3FgDkXpOaraDb-12" edge="1">
          <mxGeometry relative="1" as="geometry">
            <Array as="points">
              <mxPoint x="690" y="1130.15" />
            </Array>
          </mxGeometry>
        </mxCell>
        <mxCell id="Tr2P6wa3FgDkXpOaraDb-6" value="&lt;p style=&quot;margin:0px;margin-top:4px;text-align:center;&quot;&gt;&lt;i&gt;&amp;lt;&amp;lt;Interface&amp;gt;&amp;gt;&lt;/i&gt;&lt;br&gt;&lt;b&gt;IShopAPI&lt;/b&gt;&lt;/p&gt;&lt;hr size=&quot;1&quot; style=&quot;border-style:solid;&quot;&gt;&lt;p style=&quot;margin:0px;margin-left:4px;&quot;&gt;+ getCardList: () =&amp;gt; Promise&amp;lt;ICard[]&amp;gt;&lt;/p&gt;&lt;p style=&quot;margin:0px;margin-left:4px;&quot;&gt;+ getCardItem:&amp;nbsp;&lt;span style=&quot;background-color: initial;&quot;&gt;() =&amp;gt; Promise&amp;lt;ICard&amp;gt;&lt;/span&gt;&lt;/p&gt;&lt;p style=&quot;margin:0px;margin-left:4px;&quot;&gt;&lt;span style=&quot;background-color: initial;&quot;&gt;+ orderCards: () =&amp;gt;&amp;nbsp;&lt;/span&gt;&lt;span style=&quot;background-color: initial;&quot;&gt;Promise&amp;lt;IOrderResult&amp;gt;&lt;/span&gt;&lt;/p&gt;&lt;p style=&quot;margin:0px;margin-left:4px;&quot;&gt;&lt;br&gt;&lt;/p&gt;" style="verticalAlign=top;align=left;overflow=fill;html=1;whiteSpace=wrap;" parent="1" vertex="1">
          <mxGeometry x="440" y="1150.15" width="250" height="110" as="geometry" />
        </mxCell>
        <mxCell id="Tr2P6wa3FgDkXpOaraDb-16" style="edgeStyle=orthogonalEdgeStyle;rounded=0;orthogonalLoop=1;jettySize=auto;html=1;exitX=0.5;exitY=0;exitDx=0;exitDy=0;entryX=0.5;entryY=0;entryDx=0;entryDy=0;" parent="1" source="Tr2P6wa3FgDkXpOaraDb-8" target="Tr2P6wa3FgDkXpOaraDb-12" edge="1">
          <mxGeometry relative="1" as="geometry" />
        </mxCell>
        <mxCell id="Tr2P6wa3FgDkXpOaraDb-8" value="Api" style="swimlane;fontStyle=1;align=center;verticalAlign=top;childLayout=stackLayout;horizontal=1;startSize=26;horizontalStack=0;resizeParent=1;resizeParentMax=0;resizeLast=0;collapsible=1;marginBottom=0;whiteSpace=wrap;html=1;" parent="1" vertex="1">
          <mxGeometry x="30" y="1110.0900000000001" width="160" height="150" as="geometry" />
        </mxCell>
        <mxCell id="Tr2P6wa3FgDkXpOaraDb-9" value="+ baseUrl: String&lt;div&gt;# options: RequestInit&lt;/div&gt;" style="text;strokeColor=none;fillColor=none;align=left;verticalAlign=top;spacingLeft=4;spacingRight=4;overflow=hidden;rotatable=0;points=[[0,0.5],[1,0.5]];portConstraint=eastwest;whiteSpace=wrap;html=1;" parent="Tr2P6wa3FgDkXpOaraDb-8" vertex="1">
          <mxGeometry y="26" width="160" height="44" as="geometry" />
        </mxCell>
        <mxCell id="Tr2P6wa3FgDkXpOaraDb-10" value="" style="line;strokeWidth=1;fillColor=none;align=left;verticalAlign=middle;spacingTop=-1;spacingLeft=3;spacingRight=3;rotatable=0;labelPosition=right;points=[];portConstraint=eastwest;strokeColor=inherit;" parent="Tr2P6wa3FgDkXpOaraDb-8" vertex="1">
          <mxGeometry y="70" width="160" height="8" as="geometry" />
        </mxCell>
        <mxCell id="Tr2P6wa3FgDkXpOaraDb-11" value="# handleResponse(): Promise&amp;lt;object&amp;gt;&lt;div&gt;get()&lt;/div&gt;&lt;div&gt;post()&lt;/div&gt;" style="text;strokeColor=none;fillColor=none;align=left;verticalAlign=top;spacingLeft=4;spacingRight=4;overflow=hidden;rotatable=0;points=[[0,0.5],[1,0.5]];portConstraint=eastwest;whiteSpace=wrap;html=1;" parent="Tr2P6wa3FgDkXpOaraDb-8" vertex="1">
          <mxGeometry y="78" width="160" height="72" as="geometry" />
        </mxCell>
        <mxCell id="Tr2P6wa3FgDkXpOaraDb-12" value="ShopAPI" style="swimlane;fontStyle=1;align=center;verticalAlign=top;childLayout=stackLayout;horizontal=1;startSize=26;horizontalStack=0;resizeParent=1;resizeParentMax=0;resizeLast=0;collapsible=1;marginBottom=0;whiteSpace=wrap;html=1;" parent="1" vertex="1">
          <mxGeometry x="260" y="1123.0900000000001" width="160" height="60" as="geometry" />
        </mxCell>
        <mxCell id="Tr2P6wa3FgDkXpOaraDb-13" value="+ cdn: String" style="text;strokeColor=none;fillColor=none;align=left;verticalAlign=top;spacingLeft=4;spacingRight=4;overflow=hidden;rotatable=0;points=[[0,0.5],[1,0.5]];portConstraint=eastwest;whiteSpace=wrap;html=1;" parent="Tr2P6wa3FgDkXpOaraDb-12" vertex="1">
          <mxGeometry y="26" width="160" height="26" as="geometry" />
        </mxCell>
        <mxCell id="Tr2P6wa3FgDkXpOaraDb-14" value="" style="line;strokeWidth=1;fillColor=none;align=left;verticalAlign=middle;spacingTop=-1;spacingLeft=3;spacingRight=3;rotatable=0;labelPosition=right;points=[];portConstraint=eastwest;strokeColor=inherit;" parent="Tr2P6wa3FgDkXpOaraDb-12" vertex="1">
          <mxGeometry y="52" width="160" height="8" as="geometry" />
        </mxCell>
        <mxCell id="kR6O2xnwiLPBDadl995g-29" style="edgeStyle=orthogonalEdgeStyle;rounded=0;orthogonalLoop=1;jettySize=auto;html=1;exitX=1;exitY=0;exitDx=0;exitDy=0;" parent="1" source="ZJhNXfSze4hVI7veaMcX-1" edge="1">
          <mxGeometry relative="1" as="geometry">
            <mxPoint x="1000" y="534.9999999999999" as="targetPoint" />
            <Array as="points">
              <mxPoint x="1180" y="534.9999999999999" />
              <mxPoint x="1000" y="534.9999999999999" />
            </Array>
          </mxGeometry>
        </mxCell>
        <mxCell id="ZJhNXfSze4hVI7veaMcX-1" value="&lt;p style=&quot;margin:0px;margin-top:4px;text-align:center;&quot;&gt;&lt;i&gt;&amp;lt;&amp;lt;Interface&amp;gt;&amp;gt;&lt;/i&gt;&lt;br&gt;&lt;b&gt;IAppState&lt;/b&gt;&lt;/p&gt;&lt;hr size=&quot;1&quot; style=&quot;border-style:solid;&quot;&gt;&lt;p style=&quot;margin:0px;margin-left:4px;&quot;&gt;+ catalog: ICard[]&lt;/p&gt;&lt;p style=&quot;margin:0px;margin-left:4px;&quot;&gt;+ basket: string[]&lt;/p&gt;&lt;p style=&quot;margin:0px;margin-left:4px;&quot;&gt;+ order: IForm&lt;/p&gt;&lt;p style=&quot;margin:0px;margin-left:4px;&quot;&gt;&lt;br&gt;&lt;/p&gt;&lt;p style=&quot;margin:0px;margin-left:4px;&quot;&gt;&lt;br&gt;&lt;/p&gt;" style="verticalAlign=top;align=left;overflow=fill;html=1;whiteSpace=wrap;" parent="1" vertex="1">
          <mxGeometry x="1020" y="565" width="160" height="94.93" as="geometry" />
        </mxCell>
        <mxCell id="ZJhNXfSze4hVI7veaMcX-5" style="edgeStyle=orthogonalEdgeStyle;rounded=0;orthogonalLoop=1;jettySize=auto;html=1;entryX=1.021;entryY=0.138;entryDx=0;entryDy=0;entryPerimeter=0;" parent="1" source="2apW-BuTAJdEhEXrDdgW-64" target="2apW-BuTAJdEhEXrDdgW-96" edge="1">
          <mxGeometry relative="1" as="geometry">
            <Array as="points">
              <mxPoint x="470" y="180" />
              <mxPoint x="470" y="315" />
            </Array>
          </mxGeometry>
        </mxCell>
        <mxCell id="ZJhNXfSze4hVI7veaMcX-18" value="&lt;div&gt;&lt;span style=&quot;background-color: initial;&quot;&gt;EventEmitter&lt;/span&gt;&lt;br&gt;&lt;/div&gt;" style="swimlane;fontStyle=1;align=center;verticalAlign=top;childLayout=stackLayout;horizontal=1;startSize=40;horizontalStack=0;resizeParent=1;resizeParentMax=0;resizeLast=0;collapsible=1;marginBottom=0;whiteSpace=wrap;html=1;" parent="1" vertex="1">
          <mxGeometry x="40" y="820" width="160" height="180" as="geometry" />
        </mxCell>
        <mxCell id="ZJhNXfSze4hVI7veaMcX-23" value="_events" style="text;strokeColor=none;fillColor=none;align=left;verticalAlign=top;spacingLeft=4;spacingRight=4;overflow=hidden;rotatable=0;points=[[0,0.5],[1,0.5]];portConstraint=eastwest;whiteSpace=wrap;html=1;" parent="ZJhNXfSze4hVI7veaMcX-18" vertex="1">
          <mxGeometry y="40" width="160" height="26" as="geometry" />
        </mxCell>
        <mxCell id="ZJhNXfSze4hVI7veaMcX-19" value="" style="line;strokeWidth=1;fillColor=none;align=left;verticalAlign=middle;spacingTop=-1;spacingLeft=3;spacingRight=3;rotatable=0;labelPosition=right;points=[];portConstraint=eastwest;strokeColor=inherit;" parent="ZJhNXfSze4hVI7veaMcX-18" vertex="1">
          <mxGeometry y="66" width="160" height="8" as="geometry" />
        </mxCell>
        <mxCell id="ZJhNXfSze4hVI7veaMcX-20" value="+ on()&lt;div&gt;+ off()&lt;/div&gt;&lt;div&gt;+ emit()&lt;/div&gt;&lt;div&gt;+ onAll()&lt;/div&gt;&lt;div&gt;+ offAll()&lt;/div&gt;&lt;div&gt;+ trigger()&lt;/div&gt;&lt;div&gt;&lt;br&gt;&lt;/div&gt;" style="text;strokeColor=none;fillColor=none;align=left;verticalAlign=top;spacingLeft=4;spacingRight=4;overflow=hidden;rotatable=0;points=[[0,0.5],[1,0.5]];portConstraint=eastwest;whiteSpace=wrap;html=1;" parent="ZJhNXfSze4hVI7veaMcX-18" vertex="1">
          <mxGeometry y="74" width="160" height="106" as="geometry" />
        </mxCell>
        <mxCell id="kR6O2xnwiLPBDadl995g-32" style="edgeStyle=orthogonalEdgeStyle;rounded=0;orthogonalLoop=1;jettySize=auto;html=1;exitX=1;exitY=0;exitDx=0;exitDy=0;entryX=1;entryY=0.5;entryDx=0;entryDy=0;" parent="1" source="ZJhNXfSze4hVI7veaMcX-21" target="ZJhNXfSze4hVI7veaMcX-23" edge="1">
          <mxGeometry relative="1" as="geometry" />
        </mxCell>
        <mxCell id="ZJhNXfSze4hVI7veaMcX-21" value="&lt;p style=&quot;margin:0px;margin-top:4px;text-align:center;&quot;&gt;&lt;i&gt;&amp;lt;&amp;lt;Interface&amp;gt;&amp;gt;&lt;/i&gt;&lt;br&gt;&lt;b&gt;IEvents&lt;/b&gt;&lt;/p&gt;&lt;hr size=&quot;1&quot; style=&quot;border-style:solid;&quot;&gt;&lt;p style=&quot;margin:0px;margin-left:4px;&quot;&gt;+ on(): void&lt;/p&gt;&lt;p style=&quot;margin:0px;margin-left:4px;&quot;&gt;+ emit(): void&lt;/p&gt;&lt;p style=&quot;margin:0px;margin-left:4px;&quot;&gt;+ trigger(): () =&amp;gt; void&lt;/p&gt;&lt;p style=&quot;margin:0px;margin-left:4px;&quot;&gt;&lt;br&gt;&lt;/p&gt;" style="verticalAlign=top;align=left;overflow=fill;html=1;whiteSpace=wrap;" parent="1" vertex="1">
          <mxGeometry x="254" y="900" width="160" height="120" as="geometry" />
        </mxCell>
        <mxCell id="kR6O2xnwiLPBDadl995g-33" style="edgeStyle=orthogonalEdgeStyle;rounded=0;orthogonalLoop=1;jettySize=auto;html=1;exitX=1;exitY=0;exitDx=0;exitDy=0;entryX=1;entryY=0;entryDx=0;entryDy=0;" parent="1" source="ZJhNXfSze4hVI7veaMcX-28" target="Tr2P6wa3FgDkXpOaraDb-6" edge="1">
          <mxGeometry relative="1" as="geometry">
            <mxPoint x="690" y="1130" as="targetPoint" />
            <Array as="points">
              <mxPoint x="900" y="1150" />
            </Array>
          </mxGeometry>
        </mxCell>
        <mxCell id="ZJhNXfSze4hVI7veaMcX-28" value="&lt;p style=&quot;margin:0px;margin-top:4px;text-align:center;&quot;&gt;&lt;i&gt;&amp;lt;&amp;lt;Interface&amp;gt;&amp;gt;&lt;/i&gt;&lt;br&gt;&lt;b&gt;IOrderResult&lt;/b&gt;&lt;/p&gt;&lt;hr size=&quot;1&quot; style=&quot;border-style:solid;&quot;&gt;&lt;p style=&quot;margin:0px;margin-left:4px;&quot;&gt;+ id: String&lt;/p&gt;&lt;p style=&quot;margin:0px;margin-left:4px;&quot;&gt;&lt;br&gt;&lt;/p&gt;" style="verticalAlign=top;align=left;overflow=fill;html=1;whiteSpace=wrap;" parent="1" vertex="1">
          <mxGeometry x="750" y="1180.0000000000002" width="150" height="70" as="geometry" />
        </mxCell>
        <mxCell id="kR6O2xnwiLPBDadl995g-6" style="edgeStyle=orthogonalEdgeStyle;rounded=0;orthogonalLoop=1;jettySize=auto;html=1;exitX=1;exitY=0;exitDx=0;exitDy=0;entryX=-0.016;entryY=0.12;entryDx=0;entryDy=0;entryPerimeter=0;" parent="1" source="2apW-BuTAJdEhEXrDdgW-8" target="2apW-BuTAJdEhEXrDdgW-96" edge="1">
          <mxGeometry relative="1" as="geometry" />
        </mxCell>
        <mxCell id="kR6O2xnwiLPBDadl995g-7" style="edgeStyle=orthogonalEdgeStyle;rounded=0;orthogonalLoop=1;jettySize=auto;html=1;exitX=1;exitY=0;exitDx=0;exitDy=0;entryX=-0.016;entryY=0.119;entryDx=0;entryDy=0;entryPerimeter=0;" parent="1" source="2apW-BuTAJdEhEXrDdgW-8" target="2apW-BuTAJdEhEXrDdgW-100" edge="1">
          <mxGeometry relative="1" as="geometry" />
        </mxCell>
        <mxCell id="kR6O2xnwiLPBDadl995g-8" style="edgeStyle=orthogonalEdgeStyle;rounded=0;orthogonalLoop=1;jettySize=auto;html=1;exitX=1;exitY=0;exitDx=0;exitDy=0;entryX=-0.01;entryY=0.022;entryDx=0;entryDy=0;entryPerimeter=0;" parent="1" source="2apW-BuTAJdEhEXrDdgW-8" target="kR6O2xnwiLPBDadl995g-5" edge="1">
          <mxGeometry relative="1" as="geometry" />
        </mxCell>
        <mxCell id="kR6O2xnwiLPBDadl995g-15" style="edgeStyle=orthogonalEdgeStyle;rounded=0;orthogonalLoop=1;jettySize=auto;html=1;exitX=1;exitY=1;exitDx=0;exitDy=0;entryX=1;entryY=0;entryDx=0;entryDy=0;" parent="1" source="kR6O2xnwiLPBDadl995g-13" target="2apW-BuTAJdEhEXrDdgW-53" edge="1">
          <mxGeometry relative="1" as="geometry" />
        </mxCell>
        <mxCell id="kR6O2xnwiLPBDadl995g-13" value="&lt;p style=&quot;margin:0px;margin-top:4px;text-align:center;&quot;&gt;&lt;i&gt;&amp;lt;&amp;lt;Interface&amp;gt;&amp;gt;&lt;/i&gt;&lt;br&gt;&lt;b&gt;IPage&lt;/b&gt;&lt;/p&gt;&lt;hr size=&quot;1&quot; style=&quot;border-style:solid;&quot;&gt;&lt;p style=&quot;margin:0px;margin-left:4px;&quot;&gt;+ counter: number&lt;br&gt;&lt;/p&gt;&lt;p style=&quot;margin:0px;margin-left:4px;&quot;&gt;+ catalog: HTMLElement[]&lt;/p&gt;&lt;p style=&quot;margin:0px;margin-left:4px;&quot;&gt;&lt;br&gt;&lt;/p&gt;" style="verticalAlign=top;align=left;overflow=fill;html=1;whiteSpace=wrap;" parent="1" vertex="1">
          <mxGeometry x="960" y="-70" width="180" height="80" as="geometry" />
        </mxCell>
        <mxCell id="kR6O2xnwiLPBDadl995g-21" style="edgeStyle=orthogonalEdgeStyle;rounded=0;orthogonalLoop=1;jettySize=auto;html=1;exitX=1;exitY=0;exitDx=0;exitDy=0;entryX=1.009;entryY=0.129;entryDx=0;entryDy=0;entryPerimeter=0;" parent="1" source="2apW-BuTAJdEhEXrDdgW-14" target="2apW-BuTAJdEhEXrDdgW-16" edge="1">
          <mxGeometry relative="1" as="geometry" />
        </mxCell>
        <mxCell id="kR6O2xnwiLPBDadl995g-24" value="&lt;h1 style=&quot;margin-top: 0px;&quot;&gt;View&lt;/h1&gt;" style="text;html=1;whiteSpace=wrap;overflow=hidden;rounded=0;" parent="1" vertex="1">
          <mxGeometry x="20" y="-100" width="180" height="50" as="geometry" />
        </mxCell>
        <mxCell id="kR6O2xnwiLPBDadl995g-30" value="&lt;h1 style=&quot;margin-top: 0px;&quot;&gt;Model&lt;/h1&gt;" style="text;html=1;whiteSpace=wrap;overflow=hidden;rounded=0;" parent="1" vertex="1">
          <mxGeometry x="630" y="330" width="180" height="50" as="geometry" />
        </mxCell>
        <mxCell id="kR6O2xnwiLPBDadl995g-31" value="&lt;h1 style=&quot;margin-top: 0px;&quot;&gt;Base&lt;/h1&gt;" style="text;html=1;whiteSpace=wrap;overflow=hidden;rounded=0;" parent="1" vertex="1">
          <mxGeometry x="40" y="730" width="180" height="50" as="geometry" />
        </mxCell>
      </root>
    </mxGraphModel>
  </diagram>
</mxfile>
